# Blender 4.3.2
# www.blender.org
o Cube
v 0.526898 0.526898 -8.270999
v 0.526898 -0.526898 -8.270999
v 1.000000 1.000000 1.000000
v 1.000000 -1.000000 1.000000
v -0.526898 0.526898 -8.270999
v -0.526898 -0.526898 -8.270999
v -1.000000 1.000000 1.000000
v -1.000000 -1.000000 1.000000
v -0.763449 -0.763449 -3.635499
v 0.763449 0.763449 -3.635499
v -0.763449 0.763449 -3.635499
v 0.763449 -0.763449 -3.635499
v -0.881725 -0.881725 -1.317750
v 0.881725 0.881725 -1.317750
v -0.881725 0.881725 -1.317750
v 0.881725 -0.881725 -1.317750
v 0.881725 -0.881725 -1.317750
v 0.763449 -0.763449 -3.635499
v 0.763449 0.763449 -3.635499
v 0.881725 0.881725 -1.317750
v 0.881725 -0.125286 -1.317750
v 0.763449 -0.007010 -3.635499
v 0.763449 -0.000914 -3.635499
v 0.881725 0.117361 -1.317750
v 3.771018 -0.125286 -1.465191
v 3.652742 -0.007010 -3.782941
v 3.652742 -0.000914 -3.782941
v 3.771018 0.117361 -1.465191
v -0.526898 0.526898 -8.270999
v -0.526898 -0.526898 -8.270999
v -1.000000 1.000000 1.000000
v -1.000000 -1.000000 1.000000
v 0.526898 0.526898 -8.270999
v 0.526898 -0.526898 -8.270999
v 1.000000 1.000000 1.000000
v 1.000000 -1.000000 1.000000
v 0.763449 -0.763449 -3.635499
v -0.763449 0.763449 -3.635499
v 0.763449 0.763449 -3.635499
v -0.763449 -0.763449 -3.635499
v 0.881725 -0.881725 -1.317750
v -0.881725 0.881725 -1.317750
v 0.881725 0.881725 -1.317750
v -0.881725 -0.881725 -1.317750
v -0.881725 -0.881725 -1.317750
v -0.763449 -0.763449 -3.635499
v -0.763449 0.763449 -3.635499
v -0.881725 0.881725 -1.317750
v -0.881725 -0.125286 -1.317750
v -0.763449 -0.007010 -3.635499
v -0.763449 -0.000914 -3.635499
v -0.881725 0.117361 -1.317750
v -3.771018 -0.125286 -1.465191
v -3.652742 -0.007010 -3.782941
v -3.652742 -0.000914 -3.782941
v -3.771018 0.117361 -1.465191
vn -0.0000 0.9987 -0.0510
vn -0.0000 -0.0000 1.0000
vn -0.9987 -0.0000 -0.0510
vn -0.0000 -0.9987 -0.0510
vn 0.9987 -0.0000 -0.0510
vn -0.0000 -0.0000 -1.0000
vn -0.0000 1.0000 -0.0000
vn -0.0026 -0.9987 -0.0508
vn 0.0510 -0.0000 0.9987
vn -0.0510 -0.0000 -0.9987
vn -0.0026 0.9987 -0.0508
vn 0.0026 -0.9987 -0.0508
vn -0.0510 -0.0000 0.9987
vn 0.0510 -0.0000 -0.9987
vn 0.0026 0.9987 -0.0508
vt 0.875000 0.687500
vt 0.625000 0.750000
vt 0.625000 0.687500
vt 0.375000 1.000000
vt 0.375000 0.750000
vt 0.625000 0.125000
vt 0.375000 0.250000
vt 0.375000 0.125000
vt 0.375000 0.687500
vt 0.125000 0.750000
vt 0.125000 0.687500
vt 0.625000 0.250000
vt 0.375000 0.500000
vt 0.625000 0.625000
vt 0.375000 0.625000
vt 0.125000 0.500000
vt 0.125000 0.625000
vt 0.625000 0.062500
vt 0.375000 0.062500
vt 0.625000 0.500000
vt 0.875000 0.625000
vt 0.625000 0.000000
vt 0.375000 0.000000
vt 0.875000 0.500000
vt 0.875000 0.750000
vt 0.625000 1.000000
s 0
f 15/1/1 3/2/1 14/3/1
f 3/2/2 8/4/2 4/5/2
f 11/6/3 6/7/3 9/8/3
f 16/9/4 8/10/4 13/11/4
f 14/3/5 4/5/5 16/9/5
f 5/12/6 2/13/6 6/7/6
f 2/13/5 10/14/5 12/15/5
f 6/16/4 12/15/4 9/17/4
f 15/18/3 9/8/3 13/19/3
f 1/20/1 11/21/1 10/14/1
f 7/22/3 13/19/3 8/23/3
f 14/3/7 17/9/7 20/3/7
f 12/15/4 13/11/4 9/17/4
f 11/21/1 14/3/1 10/14/1
f 19/14/5 24/3/5 23/14/5
f 10/14/7 20/3/7 19/14/7
f 16/9/7 18/15/7 17/9/7
f 12/15/7 19/14/7 18/15/7
f 22/15/8 25/9/8 21/9/8
f 18/15/5 21/9/5 17/9/5
f 20/3/6 21/9/6 24/3/6
f 18/15/6 23/14/6 22/15/6
f 27/14/5 25/9/5 26/15/5
f 21/9/9 28/3/9 24/3/9
f 23/14/10 26/15/10 22/15/10
f 24/3/11 27/14/11 23/14/11
f 31/2/1 43/1/1 42/3/1
f 36/4/2 31/2/2 32/5/2
f 34/7/5 39/6/5 37/8/5
f 36/10/4 44/9/4 41/11/4
f 32/5/3 42/3/3 44/9/3
f 30/13/6 33/12/6 34/7/6
f 40/15/3 29/20/3 30/13/3
f 37/17/4 30/13/4 34/16/4
f 37/8/5 43/18/5 41/19/5
f 38/14/1 33/24/1 29/20/1
f 41/19/5 35/22/5 36/23/5
f 42/3/7 45/9/7 44/9/7
f 41/11/4 40/15/4 37/17/4
f 42/3/1 39/21/1 38/14/1
f 47/14/3 52/3/3 48/3/3
f 38/14/7 48/3/7 42/3/7
f 44/9/7 46/15/7 40/15/7
f 40/15/7 47/14/7 38/14/7
f 53/9/12 50/15/12 49/9/12
f 49/9/3 46/15/3 45/9/3
f 48/3/7 49/9/7 45/9/7
f 46/15/2 51/14/2 47/14/2
f 53/9/3 55/14/3 54/15/3
f 56/3/13 49/9/13 52/3/13
f 54/15/14 51/14/14 50/15/14
f 55/14/15 52/3/15 51/14/15
f 15/1/1 7/25/1 3/2/1
f 3/2/2 7/26/2 8/4/2
f 11/6/3 5/12/3 6/7/3
f 16/9/4 4/5/4 8/10/4
f 14/3/5 3/2/5 4/5/5
f 5/12/6 1/20/6 2/13/6
f 2/13/5 1/20/5 10/14/5
f 6/16/4 2/13/4 12/15/4
f 15/18/3 11/6/3 9/8/3
f 1/20/1 5/24/1 11/21/1
f 7/22/3 15/18/3 13/19/3
f 14/3/7 16/9/7 17/9/7
f 12/15/4 16/9/4 13/11/4
f 11/21/1 15/1/1 14/3/1
f 19/14/5 20/3/5 24/3/5
f 10/14/7 14/3/7 20/3/7
f 16/9/7 12/15/7 18/15/7
f 12/15/7 10/14/7 19/14/7
f 22/15/8 26/15/8 25/9/8
f 18/15/5 22/15/5 21/9/5
f 20/3/7 17/9/7 21/9/7
f 18/15/2 19/14/2 23/14/2
f 27/14/5 28/3/5 25/9/5
f 21/9/9 25/9/9 28/3/9
f 23/14/10 27/14/10 26/15/10
f 24/3/11 28/3/11 27/14/11
f 31/2/1 35/25/1 43/1/1
f 36/4/2 35/26/2 31/2/2
f 34/7/5 33/12/5 39/6/5
f 36/10/4 32/5/4 44/9/4
f 32/5/3 31/2/3 42/3/3
f 30/13/6 29/20/6 33/12/6
f 40/15/3 38/14/3 29/20/3
f 37/17/4 40/15/4 30/13/4
f 37/8/5 39/6/5 43/18/5
f 38/14/1 39/21/1 33/24/1
f 41/19/5 43/18/5 35/22/5
f 42/3/7 48/3/7 45/9/7
f 41/11/4 44/9/4 40/15/4
f 42/3/1 43/1/1 39/21/1
f 47/14/3 51/14/3 52/3/3
f 38/14/7 47/14/7 48/3/7
f 44/9/7 45/9/7 46/15/7
f 40/15/7 46/15/7 47/14/7
f 53/9/12 54/15/12 50/15/12
f 49/9/3 50/15/3 46/15/3
f 48/3/6 52/3/6 49/9/6
f 46/15/6 50/15/6 51/14/6
f 53/9/3 56/3/3 55/14/3
f 56/3/13 53/9/13 49/9/13
f 54/15/14 55/14/14 51/14/14
f 55/14/15 56/3/15 52/3/15
